<svg xmlns="http://www.w3.org/2000/svg" viewBox="0 0 64 64" role="img" aria-label="Meat">
  <defs>
    <linearGradient id="meat" x1="14" y1="12" x2="50" y2="53" gradientUnits="userSpaceOnUse">
      <stop offset="0" stop-color="#ff9472"/>
      <stop offset=".55" stop-color="#d94e3f"/>
      <stop offset="1" stop-color="#8f2e2d"/>
    </linearGradient>
    <linearGradient id="bone" x1="43" y1="16" x2="58" y2="32" gradientUnits="userSpaceOnUse">
      <stop offset="0" stop-color="#fff6d5"/>
      <stop offset="1" stop-color="#d8bd8b"/>
    </linearGradient>
  </defs>
  <path fill="#2b1713" opacity=".28" d="M16 48c8 6 27 6 35 0 3-2 3-6-1-8-9-5-28-5-36 0-4 2-3 6 2 8Z"/>
  <path fill="url(#bone)" d="M42 17c3-3 6-4 9-2 2-4 8-2 8 3 0 3-2 5-5 5 1 4-2 7-6 6-2-1-3-2-4-4l-7 7-6-6 11-9Z"/>
  <path fill="url(#meat)" d="M8 32c0-13 11-23 24-22 11 1 20 9 20 20 0 12-10 23-24 23C16 53 8 44 8 32Z"/>
  <path fill="#ffcab1" opacity=".75" d="M19 24c2-5 8-8 14-7 3 1 5 3 4 5-1 3-6 2-10 4-5 2-7 7-10 6-2-1-1-5 2-8Z"/>
  <path fill="#7c2727" opacity=".42" d="M41 32c4 6-2 14-11 15-7 1-14-2-17-8 5 4 12 5 18 3 6-1 10-5 10-10Z"/>
</svg>
